<?xml version="1.0" encoding="UTF-8" standalone="no"?>
<!-- Created with Inkscape (http://www.inkscape.org/) -->

<svg
   width="22.000002"
   height="21.999998"
   viewBox="0 0 5.8208344 5.8208329"
   version="1.1"
   id="svg5"
   sodipodi:docname="lamula-logo.svg"
   inkscape:version="1.1.2 (0a00cf5339, 2022-02-04)"
   xmlns:inkscape="http://www.inkscape.org/namespaces/inkscape"
   xmlns:sodipodi="http://sodipodi.sourceforge.net/DTD/sodipodi-0.dtd"
   xmlns="http://www.w3.org/2000/svg"
   xmlns:svg="http://www.w3.org/2000/svg">
  <sodipodi:namedview
     id="namedview6"
     pagecolor="#ffffff"
     bordercolor="#666666"
     borderopacity="1.0"
     inkscape:pageshadow="2"
     inkscape:pageopacity="0.0"
     inkscape:pagecheckerboard="0"
     inkscape:document-units="px"
     showgrid="false"
     fit-margin-top="0.25"
     fit-margin-left="1"
     fit-margin-right="1"
     fit-margin-bottom="0.25"
     units="px"
     inkscape:zoom="4"
     inkscape:cx="7.375"
     inkscape:cy="34.25"
     inkscape:window-width="1366"
     inkscape:window-height="696"
     inkscape:window-x="0"
     inkscape:window-y="0"
     inkscape:window-maximized="1"
     inkscape:current-layer="svg5" />
  <defs
     id="defs2" />
  <g
     id="layer1"
     transform="matrix(0.02675428,0,0,0.02680208,0.06504035,-0.21086677)">
    <path
       style="fill:#333333;fill-opacity:1;stroke-width:0.264583"
       d="m 96.965897,222.20243 c -10.05943,-1.14221 -17.04742,-2.81825 -26.06146,-6.25075 l -3.43958,-1.30976 -5.29167,-2.6207 -5.29167,-2.6207 -3.70416,-2.32604 c -7.36368,-4.62403 -12.70342,-8.93207 -18.53619,-14.95479 l -3.68881,-3.80894 -3.05962,-4.08329 c -6.24689,-8.33695 -11.14631,-17.2703 -14.35602,-26.176 -2.9026,-8.05363 -4.2945593,-13.7287 -5.3539092,-21.82813 l -0.41527,-3.17499 -0.15459,-5.201 -0.15459,-5.20099 0.31902,-4.19171 0.31903,-4.19172 1.0528199,-6.08542 c 1.1720093,-6.77431 1.8196093,-9.390399 3.5904393,-14.504049 2.85141,-8.234097 6.51469,-15.673957 10.96691,-22.273017 3.12465,-4.63136 5.42654,-7.70201 8.46189,-11.28793 l 2.53903,-2.999574 3.01786,-2.910416 c 3.59502,-3.467026 5.94,-5.397161 10.02804,-8.253987 2.65515,-1.855488 6.26748,-4.049138 6.6678,-4.049138 0.0741,0 0.20527,2.053828 0.29157,4.564062 0.0863,2.510235 0.22805,4.802188 0.315,5.093229 l 0.15809,0.529167 -0.73967,0.330348 c -0.40682,0.18169 -1.5731,1.001797 -2.59175,1.822461 -6.19413,4.99025 -10.77077,9.522218 -15.19339,15.045108 l -2.75435,3.43958 -2.53262,3.83646 -2.53262,3.83646 -2.07878,4.10104 -2.07878,4.10104 -1.66617,4.233326 c -2.69886,6.857191 -4.38474,13.00161 -5.33572,19.44687 l -0.48798,3.3073 v 9.3927 9.39271 l 0.35257,2.38125 c 0.47216,3.18894 2.22847,10.66257 3.38867,14.41979 1.86085,6.02622 5.04399,13.03484 8.59387,18.92194 l 2.23614,3.7084 2.09134,2.77389 c 5.16816,6.85491 9.70087,11.7952 14.55824,15.86733 4.88637,4.09645 11.81049,8.55994 18.25625,11.76852 l 4.49791,2.23897 3.57188,1.35956 3.57187,1.35955 3.78989,1.04412 c 4.86339,1.33988 11.97032,2.77772 16.18453,3.27438 l 3.305683,0.38959 4.63183,-7.9e-4 4.63183,-8e-4 4.23333,-0.40408 4.23334,-0.40408 3.89469,-0.78321 c 7.0496,-1.41765 12.5454,-3.07779 18.59489,-5.61705 3.52721,-1.48054 9.74304,-4.6252 11.37708,-5.7558 0.58208,-0.40275 1.9513,-1.29447 3.04271,-1.9816 2.46957,-1.55481 4.0703,-2.75025 7.9375,-5.92782 6.66169,-5.47373 12.19096,-11.82536 17.87566,-20.53425 l 1.90135,-2.91285 2.31241,-4.61878 2.31241,-4.61878 1.44363,-3.71316 c 0.794,-2.04224 1.85262,-5.06152 2.3525,-6.7095 l 0.90888,-2.99634 1.03602,-5.20575 c 0.56982,-2.8634 1.19194,-6.33708 1.3825,-7.71952 l 0.34646,-2.51354 -0.01,-6.61459 -0.01,-6.61458 -0.47051,-3.43958 c -1.32401,-9.67872 -3.55875,-17.550289 -7.46108,-26.280586 -2.72932,-6.10605 -5.54162,-10.74069 -10.7412,-17.7014 l -2.61503,-3.50074 -2.77313,-3.03697 -2.77313,-3.03698 -2.66486,-2.325823 C 161.14781,54.218309 156.76237,51.008966 152.39553,48.5709 l -2.38125,-1.329484 0.0902,-0.355909 c 0.61132,-2.411659 1.12566,-5.266375 1.26779,-7.036639 0.0964,-1.200546 0.247,-2.179679 0.33467,-2.175851 0.15979,0.007 2.47989,1.230847 5.45107,2.875471 0.87313,0.483298 3.43297,2.103622 5.68854,3.600719 l 4.10104,2.721996 2.51355,2.113405 c 1.38244,1.16237 4.07071,3.645352 5.97393,5.517737 l 3.46039,3.404335 2.57771,3.080664 c 3.9583,4.73065 8.70671,11.63689 11.70743,17.02767 2.35068,4.22298 5.13073,10.77916 7.18069,16.934197 l 1.32152,3.96788 0.96473,4.233329 c 0.5306,2.32833 1.2698,6.19786 1.64266,8.59896 l 0.67793,4.36562 0.13896,6.9323 0.13896,6.9323 -0.3203,3.51874 -0.32031,3.51874 -0.78481,4.36563 c -2.60205,14.4742 -8.08324,27.69102 -16.45894,39.6875 -8.55282,12.25016 -16.89769,19.96172 -30.33388,28.03174 -11.26721,6.7673 -24.62692,11.18674 -38.89584,12.86689 l -3.57187,0.42058 -7.14375,0.0943 -7.14376,0.0943 z m 4.630213,-12.19852 c -0.43656,-0.0501 -2.10344,-0.22334 -3.704173,-0.38488 -3.25983,-0.32896 -5.03524,-0.64592 -10.12452,-1.80755 l -3.50993,-0.80114 -4.29528,-1.43158 c -9.76173,-3.25351 -19.24714,-8.23162 -25.92496,-13.60585 l -1.78594,-1.43731 v -0.60015 c 0,-0.73379 1.0789,-3.64794 2.03942,-5.50856 l 0.70844,-1.37231 0.19833,1.05834 c 0.10907,0.58208 0.20518,1.52863 0.21357,2.10343 l 0.0152,1.04511 0.23989,-0.25136 0.23989,-0.25135 0.29981,-2.83845 0.2998,-2.83846 0.50199,-1.52717 0.50198,-1.52717 0.0352,1.71979 0.0353,1.71979 0.22739,0.52917 0.22739,0.52917 0.0488,-1.32292 c 0.0674,-1.82724 0.17985,-2.69355 0.54954,-4.23182 l 0.31829,-1.32443 0.18112,-2.91042 0.18112,-2.91041 0.0406,1.78593 0.0406,1.78594 h 0.2091 0.20911 l 0.34211,-2.22997 0.34211,-2.22996 0.0266,-2.86326 0.0266,-2.86327 0.14981,1.05834 0.1498,1.05833 0.35683,-3.02798 0.35682,-3.02797 0.28678,-0.67619 0.28679,-0.67619 0.0551,-7.40834 0.055,-7.40833 0.3067,-4.49792 c 0.16868,-2.47385 0.47711,-6.28385 0.68539,-8.46666 0.20828,-2.18281 0.56546,-5.94179 0.79374,-8.35328 l 0.41505,-4.38452 -0.0793,-1.83319 -0.0793,-1.83318 -0.84324,2.64584 c -0.86354,2.70949 -1.24717,4.44918 -1.54618,7.01145 -0.0934,0.80037 -0.39284,2.88396 -0.66543,4.63021 -0.48893,3.13221 -0.88924,6.79715 -1.70509,15.61042 -0.229,2.47385 -0.64505,6.22432 -0.92456,8.33437 -0.2795,2.11005 -0.69722,5.4438 -0.92826,7.40834 -0.97022,8.24971 -3.09046,19.03944 -4.41931,22.48958 -0.64655,1.67865 -2.79323,6.10381 -3.13151,6.45528 l -0.22866,0.23758 -1.50097,-1.3718 c -0.82553,-0.75449 -1.84376,-1.54907 -2.26273,-1.76573 -0.41897,-0.21666 -0.76177,-0.5049 -0.76177,-0.64054 0,-0.13564 0.9161,-1.2262 2.03577,-2.42347 l 2.03577,-2.17685 -0.33129,-0.11043 -0.33128,-0.11043 -0.44771,0.40411 c -0.24625,0.22226 -1.14442,0.77026 -1.99594,1.21778 l -1.54822,0.81366 h -0.63237 -0.63237 l 3.83424,-3.78961 3.83424,-3.78961 v -0.36093 -0.36093 l -0.72761,0.65854 c -1.48339,1.34259 -6.51767,4.18963 -6.8394,3.8679 -0.0425,-0.0425 1.4984,-1.68119 3.42431,-3.64145 4.08774,-4.16067 5.56054,-5.80634 5.36839,-5.99849 -0.0761,-0.0761 -0.6509,0.27175 -1.27734,0.77298 -0.62644,0.50124 -1.5557,1.15933 -2.06502,1.46241 -1.0445,0.62157 -4.36073,1.74601 -4.74987,1.61055 l -0.25468,-0.0887 1.91805,-1.5875 c 2.36217,-1.95507 5.15551,-4.97695 6.11677,-6.61722 0.95148,-1.62358 0.72131,-1.76217 -0.44352,-0.26706 l -0.93125,1.1953 -1.68765,1.34991 c -0.9282,0.74245 -2.46155,1.80563 -3.40743,2.36263 l -1.7198,1.01271 -1.54097,0.4402 c -0.84754,0.24211 -1.59171,0.38946 -1.65372,0.32746 -0.062,-0.062 0.55421,-0.5721 1.36938,-1.13352 1.96345,-1.35228 5.03711,-4.38141 7.91317,-7.79853 1.28603,-1.52797 2.51531,-2.98722 2.73173,-3.24277 l 0.39349,-0.46464 -0.15939,-0.15939 -0.15939,-0.15939 -1.27215,1.05984 -1.27215,1.05983 -1.88516,0.93993 -1.88516,0.93993 -2.39999,0.67479 c -1.31999,0.37113 -2.48383,0.67479 -2.5863,0.67479 -0.10248,0 0.30041,-0.35259 0.8953,-0.78353 1.07689,-0.7801 8.61991,-7.72732 8.92368,-8.21883 l 0.15949,-0.25806 h -0.17586 c -0.0967,0 -0.55023,0.3164 -1.0078,0.70311 -0.45757,0.38672 -1.44963,0.97726 -2.20457,1.31231 l -1.37262,0.6092 -1.74735,0.30428 -1.74735,0.30429 -1.48444,-0.18547 -1.48445,-0.18546 1.45796,-0.59256 c 3.06638,-1.24627 5.55245,-3.14097 9.54857,-7.27721 2.51411,-2.60226 3.17916,-3.45916 2.68471,-3.45916 -0.0813,0 -0.58731,0.35176 -1.12448,0.78169 -0.53717,0.42992 -1.52527,1.02331 -2.19576,1.31863 -1.36965,0.60326 -4.59767,1.33927 -5.8738,1.33927 h -0.84058 l 2.64381,-1.76255 c 4.10637,-2.73758 6.72284,-4.92287 7.86854,-6.57183 l 0.5515,-0.79375 -0.90374,0.8221 c -0.49705,0.45216 -1.56434,1.31154 -2.37174,1.90974 l -1.468,1.08764 -2.50075,1.18032 -2.50074,1.18033 -2.16075,0.54796 c -1.18841,0.30137 -2.25807,0.54795 -2.37702,0.54795 -0.11894,0 0.99966,-0.70249 2.48578,-1.56109 l 2.70205,-1.56109 2.18851,-1.73081 c 1.20368,-0.95195 3.25562,-2.7443 4.55988,-3.98299 l 2.37137,-2.25218 -0.1896,-0.1896 -0.1896,-0.1896 -0.59427,0.54336 c -0.74921,0.68503 -1.995,1.31773 -3.85377,1.95724 l -1.45355,0.5001 -2.27368,-0.0254 -2.27369,-0.0254 -1.32291,-0.31949 -1.32292,-0.31949 1.32292,-0.2075 1.32291,-0.2075 1.87533,-0.77736 c 3.38128,-1.4016 10.27483,-6.05536 8.96974,-6.05536 -0.0743,0 -1.1234,0.52123 -2.33129,1.15829 l -2.19614,1.15829 -1.96052,0.33068 -1.96051,0.33069 -1.85976,-0.14089 -1.85976,-0.14089 -2.24896,-0.75263 -2.24896,-0.75262 1.98438,-0.16965 c 3.70126,-0.31642 6.18416,-1.26057 9.46818,-3.60037 l 1.66298,-1.18484 2.43807,-2.62345 c 1.34093,-1.44289 2.47707,-2.73711 2.52475,-2.87604 l 0.0867,-0.2526 -2.08534,1.17272 -2.08534,1.17271 -1.97011,0.51845 c -1.95139,0.51352 -4.48364,0.91823 -4.48364,0.71658 0,-0.0575 0.50601,-0.38837 1.12448,-0.7352 2.68134,-1.50366 9.98155,-7.44681 9.60712,-7.82123 -0.0758,-0.0758 -1.00341,0.29746 -2.06129,0.82952 l -1.92344,0.9674 -2.45096,0.24643 -2.45097,0.24643 -1.85706,-0.15569 -1.85706,-0.15569 -0.13936,-0.22549 -0.13936,-0.2255 h 0.39883 c 0.68368,0 4.70965,-1.33805 6.50397,-2.16164 1.84176,-0.84536 5.03468,-3.00158 5.03468,-3.39999 v -0.24323 l -1.52136,0.91884 c -1.71104,1.03342 -4.77136,2.35247 -6.11851,2.6372 l -0.893,0.18874 0.15302,-0.24759 c 0.22745,-0.36801 5.32496,-4.31576 7.45381,-5.77255 2.22765,-1.52442 3.30729,-2.48434 3.30729,-2.94056 v -0.33845 l -0.87941,0.51886 c -0.48368,0.28538 -1.46594,0.69679 -2.18281,0.91426 l -1.30341,0.39539 -2.64583,-0.008 -2.64583,-0.008 -1.45521,-0.34168 -1.45521,-0.34168 0.96226,-0.18265 c 1.93152,-0.36663 6.29981,-2.37493 9.48878,-4.36243 0.94589,-0.58952 2.50341,-1.54764 3.46117,-2.12917 0.95775,-0.58152 1.89507,-1.242509 2.08292,-1.468849 l 0.34154,-0.41153 h -0.29163 c -0.16039,0 -0.80005,0.20836 -1.42146,0.46302 l -1.12983,0.46302 -3.77042,-0.0133 -3.77043,-0.0133 -0.31739,-0.31739 -0.31738,-0.3174 h 0.66145 c 0.36381,0 0.77457,-0.1 0.91282,-0.22217 0.13824,-0.1222 0.66807,-0.37771 1.17739,-0.56779 0.50933,-0.19009 3.16145,-1.42063 5.8936,-2.73453 l 4.96756,-2.38892 -0.0955,-0.28444 -0.0955,-0.284441 h -3.97614 -3.97612 l 2.14837,-1.09627 c 1.1816,-0.60296 3.12773,-1.473956 4.32473,-1.935566 1.19701,-0.46162 2.25155,-0.96093 2.34342,-1.10959 l 0.16706,-0.2703 -0.22831,-0.22754 -0.2283,-0.22754 -4.03489,-0.0492 -4.0349,-0.0492 v -0.16743 c 0,-0.34988 7.98817,-3.46625 8.88501,-3.46625 h 0.32567 l 0.4416,1.25678 0.4416,1.25677 0.14643,2.64583 0.14643,2.645826 -0.71895,3.369101 c -0.39542,1.85301 -0.67638,3.49678 -0.62437,3.65283 l 0.0946,0.28372 0.9729,-0.8747 0.9729,-0.8747 0.43878,-1.32292 0.43878,-1.32291 0.12247,-2.778131 0.12247,-2.778116 -0.80693,-4.49792 c -1.73971,-9.69796 -2.23518,-11.53004 -4.50768,-16.66854 -2.15974,-4.88353 -3.01244,-7.33259 -4.28395,-12.304059 l -1.11656,-4.365625 -0.0134,-6.349999 -0.0134,-6.35 0.61099,-3.042708 0.61098,-3.042708 1.05127,-3.238754 c 1.3829,-4.260448 3.3519,-8.836792 5.20766,-12.103586 l 1.50102,-2.642336 1.67384,-1.77436 1.67383,-1.77436 1.18151,-0.45122 1.1815,-0.45122 1.03013,0.30864 1.03013,0.30863 0.67399,0.801 0.674,0.801 0.25054,0.98016 c 0.1378,0.53909 0.32946,1.75406 0.42592,2.69995 0.361,3.540078 1.31844,6.208679 4.84127,13.493747 l 1.8552,3.836459 0.80364,2.381249 c 0.80983,2.399573 1.62046,5.99771 2.17587,9.658001 l 0.301,1.983666 -0.0304,8.665103 -0.0304,8.6651 h 0.21154 0.21154 l 0.47064,-1.76626 c 0.25886,-0.97144 0.8134,-2.52218 1.23232,-3.44609 0.72925,-1.608326 4.24258,-7.564218 4.3789,-7.423235 0.15389,0.159155 -0.72827,5.256998 -1.2197,7.048435 -0.55218,2.0129 -0.54081,2.6587 0.0277,1.57492 0.62606,-1.19342 3.04764,-4.07888 5.20879,-6.20659 1.200553,-1.181968 2.181923,-2.074937 2.180853,-1.984375 -0.007,0.555371 -2.018063,5.962626 -2.661603,7.155085 -0.42569,0.78879 -0.73321,1.47495 -0.68337,1.52479 0.0498,0.0498 0.53993,-0.33313 1.08909,-0.85106 1.07555,-1.01437 7.205833,-5.944365 7.391623,-5.944365 0.2506,0 -1.55808,3.400028 -2.92113,5.491255 -0.80014,1.22759 -1.53009,2.42816 -1.6221,2.66793 l -0.16728,0.43594 1.57431,-1.3582 c 0.86587,-0.74701 2.40774,-1.86432 3.42639,-2.48292 1.01864,-0.618595 2.14973,-1.316227 2.51354,-1.55029 l 0.66145,-0.425572 -1.20012,1.4552 c -1.58552,1.922512 -4.03669,5.566982 -3.86182,5.741852 0.0761,0.0761 1.0081,-0.32914 2.07102,-0.90062 l 1.93259,-1.03906 1.79879,-2.09952 c 1.64585,-1.921012 2.62155,-3.07141 5.48345,-6.465162 0.55222,-0.654844 1.9172,-2.26046 3.0333,-3.568033 1.11611,-1.307574 2.74934,-3.480464 3.62942,-4.828646 0.88008,-1.348181 1.64287,-2.451237 1.69509,-2.451237 0.0921,0 -0.46905,1.474621 -1.334,3.505729 l -0.42253,0.992187 h 0.25467 c 0.14008,0 0.54769,-0.386953 0.90579,-0.859896 l 0.65113,-0.859895 2.3629,-5.168731 2.36289,-5.168728 2.07625,-3.43023 c 1.14194,-1.886624 2.77661,-4.50179 3.6326,-5.811477 0.856,-1.309687 2.01763,-3.33375 2.58141,-4.497916 l 1.02506,-2.116667 0.70448,-2.556252 0.70448,-2.556251 0.50664,-0.83311 0.50664,-0.8331 0.8844,-0.36953 0.8844,-0.36952 0.90996,0.25125 0.90996,0.25125 0.57827,0.53874 c 0.84663,0.78876 1.2473,1.68674 2.29535,5.144341 l 0.94128,3.105377 0.7054,3.611319 0.70539,3.611319 0.0179,6.085416 0.0179,6.085417 -0.73185,3.072532 -0.73184,3.072532 -1.18255,3.253644 -1.18255,3.253647 -1.87971,3.860279 -1.8797,3.860282 -1.86756,2.77812 c -1.02717,1.52797 -2.77817,3.84969 -3.89112,5.15938 -1.60894,1.89336 -5.23791,6.3483 -5.4449,6.6842 -0.0236,0.0383 -0.48898,-0.11676 -1.03419,-0.34457 l -0.99129,-0.41419 -0.3061,0.1056 -0.30611,0.10559 -1.50357,-1.15186 c -0.82696,-0.63353 -2.04094,-1.38221 -2.69772,-1.66374 l -1.19415,-0.51188 0.14735,0.38399 0.14735,0.38398 -3.00588,-1.07854 -3.00588,-1.07853 -3.83646,-0.66148 -3.83645,-0.66148 -5.95313,0.11845 -5.953133,0.11846 -0.59532,0.19459 c -0.32742,0.10702 -0.59531,0.28323 -0.59531,0.39156 v 0.19698 l 1.6181,0.14672 1.61811,0.14673 0.24868,0.24868 0.248693,0.24869 -2.197523,0.15691 -2.19752,0.15691 -2.24895,0.5562 -2.24896,0.55621 -2.38125,1.17589 -2.38125,1.17589 -1.92988,1.75353 c -1.9871,1.80551 -2.49278,2.72269 -0.61493,1.11532 l 1.05237,-0.90079 2.33372,-1.22518 2.33372,-1.22519 1.5875,-0.47052 1.5875,-0.47052 4.49791,-0.0146 4.497923,-0.0146 2.18597,0.47172 2.18596,0.47171 2.97341,1.08225 2.97342,1.08226 1.25677,0.89299 1.25677,0.89298 v -0.23962 c 0,-0.13179 -0.61119,-0.78914 -1.35821,-1.46078 l -1.35822,-1.22115 -2.4121,-1.19171 -2.41209,-1.19172 -1.71979,-0.50184 -1.7198,-0.50185 0.45278,-0.0202 c 0.7343,-0.0328 4.6652,0.94365 7.08918,1.76096 l 2.24763,0.75786 1.85208,1.0894 c 1.01865,0.59918 2.26004,1.48641 2.75866,1.97163 l 0.90659,0.88222 -0.50971,-0.9105 c -0.562,-1.00391 -2.37946,-2.95344 -3.81701,-4.09439 l -0.92604,-0.73498 2.77812,1.41471 2.77813,1.41472 2.05207,2.03605 2.05209,2.03604 -0.3063,-0.57232 c -0.71071,-1.32796 -2.19617,-3.55165 -2.824,-4.22738 l -0.676,-0.7276 h 0.33256 c 0.46068,0 2.28246,1.28435 3.95589,2.78891 l 1.40238,1.26085 0.79327,1.34856 0.79327,1.34855 -0.17996,-0.92604 -0.17996,-0.92604 -1.07072,-1.97432 -1.07071,-1.97431 1.08535,0.85961 c 0.59694,0.47278 1.6187,1.45283 2.27058,2.17787 l 1.18523,1.31827 0.60966,1.25165 0.60967,1.25165 0.0876,-0.43831 0.0876,-0.43831 -0.6525,-1.94294 c -0.35888,-1.06862 -0.62024,-1.97591 -0.5808,-2.0162 0.0394,-0.0403 0.79761,0.70274 1.68484,1.65118 l 1.61312,1.72444 0.31783,1.0608 0.31782,1.06079 h 0.2227 0.2227 v -0.51614 c 0,-0.28388 -0.13069,-1.12553 -0.29042,-1.87034 -0.15973,-0.74481 -0.24253,-1.40209 -0.184,-1.46062 0.0585,-0.0585 0.48322,0.15804 0.94375,0.48128 l 0.83733,0.5877 0.5373,1.23967 c 0.29551,0.68182 0.54484,1.51526 0.55407,1.85209 l 0.0168,0.61241 0.25774,-0.64521 c 0.14177,-0.35487 0.27256,-1.03948 0.29069,-1.52136 0.0181,-0.48188 0.10453,-0.87614 0.19203,-0.87614 0.0875,0 0.75283,0.39157 1.47848,0.87015 0.72566,0.47858 2.0765,1.26639 3.00188,1.75068 l 1.68249,0.88053 1.36022,-0.16362 c 4.55956,-0.54847 9.02459,-0.94559 10.68883,-0.95065 l 1.92027,-0.006 3.90056,0.53928 c 2.1453,0.2966 5.67108,0.89632 7.83506,1.33269 l 3.93451,0.79342 1.22487,0.58553 1.22486,0.58554 0.20003,2.51354 0.20002,2.513526 -0.13959,1.322921 -0.13959,1.32291 -1.18156,1.05834 -1.18156,1.05833 -0.41586,3.04271 c -0.22872,1.673489 -0.6594,4.054739 -0.95707,5.291669 l -0.54124,2.24895 -0.80341,1.70361 -0.80342,1.7036 -1.29414,1.29414 -1.29414,1.29414 -1.90965,0.87534 c -1.0503,0.48143 -2.2966,0.95761 -2.76954,1.05817 l -0.8599,0.18284 v 0.22585 c 0,0.25674 1.67411,1.63938 3.43959,2.84073 0.65484,0.4456 2.31185,1.80368 3.68224,3.01796 l 2.49161,2.20779 1.444,2.11667 c 0.79421,1.16416 1.78656,2.50801 2.20524,2.98633 0.41867,0.47831 1.0679,1.47485 1.44273,2.21454 l 0.6815,1.34488 0.39733,2.15108 0.39733,2.15108 1.06385,2.33078 1.06385,2.33077 -0.17712,0.97652 -0.17712,0.97652 -1.17231,1.5217 -1.1723,1.52172 0.002,0.85953 c 10e-4,0.47275 0.12322,1.60654 0.27138,2.51952 0.14816,0.91299 0.28754,2.40127 0.30975,3.30729 l 0.0404,1.64732 -0.43588,1.45521 -0.43589,1.45521 -1.13303,1.98437 c -0.62317,1.09141 -1.47943,2.80158 -1.90279,3.80038 l -0.76975,1.81601 -0.9756,1.23422 c -0.53657,0.67882 -1.70805,1.97353 -2.60328,2.87714 l -1.62769,1.64292 v 0.51074 c 0,0.2809 -0.0747,0.70552 -0.1661,0.94359 l -0.16611,0.43287 -0.6331,-0.59476 -0.63309,-0.59476 -0.42085,0.42085 -0.42085,0.42084 -0.13727,1.2179 -0.13728,1.21789 h -0.33037 -0.33036 l -0.27895,-0.7276 c -0.15342,-0.40018 -0.35448,-0.9955 -0.44681,-1.32292 -0.0923,-0.32742 -0.26054,-0.59531 -0.37383,-0.59531 h -0.20597 l -0.58184,2.00246 -0.58184,2.00246 -0.31884,-0.10385 -0.31883,-0.10384 -0.42395,-2.09706 -0.42396,-2.09705 -0.20991,0.52917 c -0.11546,0.29104 -0.60154,1.39237 -1.08019,2.4474 l -0.87026,1.91823 h -0.27188 -0.27187 l -0.0761,-2.4474 -0.0761,-2.4474 -0.96919,1.7198 c -0.53305,0.94588 -1.27672,2.00799 -1.6526,2.36024 l -0.68343,0.64045 -0.18089,-0.18089 -0.1809,-0.1809 0.44783,-1.91476 c 0.2463,-1.05312 0.4463,-2.00407 0.44444,-2.11321 -0.009,-0.52981 -0.57501,-0.0584 -1.58822,1.32292 -0.61376,0.83675 -1.40938,1.74141 -1.76803,2.01038 l -0.65209,0.48902 -0.14573,-0.14574 -0.14574,-0.14574 0.42842,-1.89709 c 0.2355,-1.0434 0.42829,-2.02867 0.42829,-2.1895 v -0.29241 l -0.81934,0.994 -0.81935,0.994 -1.02808,0.5245 -1.02809,0.52449 0.16522,-1.25977 0.16522,-1.25978 0.49159,-0.98165 c 0.27037,-0.5399 0.49158,-1.23443 0.49158,-1.5434 v -0.56176 l -0.32184,0.10729 -0.32186,0.10728 -0.48136,1.63456 -0.48137,1.63455 h -0.87556 -0.87556 l -1.69466,-1.09459 -1.69467,-1.0946 -1.5875,-1.64675 -1.5875,-1.64675 -2.15821,-0.14237 -2.15821,-0.14236 -3.87328,-1.64462 -3.87328,-1.64463 -1.64142,-1.19709 -1.64143,-1.1971 0.66145,0.73886 c 0.36381,0.40637 1.07818,1.13692 1.5875,1.62346 l 0.92605,0.88462 2.64583,1.28228 c 1.45521,0.70526 2.94349,1.412 3.30729,1.57052 l 0.66146,0.28823 -0.75556,0.0179 c -2.00674,0.0476 -6.78859,-1.76913 -10.1292,-3.84823 l -2.07792,-1.29324 -1.5766,-1.5875 -1.57659,-1.5875 1.13706,1.63383 1.13705,1.63382 1.81011,1.74752 1.81011,1.74751 2.20035,1.06762 2.20036,1.06763 -1.31399,-0.15227 -1.31398,-0.15226 -2.91935,-1.61205 c -3.6652,-2.02391 -5.79395,-3.53521 -8.32217,-5.90832 l -1.98881,-1.86678 0.49509,0.79375 c 0.75851,1.21607 1.96676,2.75895 3.4416,4.39475 0.73605,0.81638 1.56239,1.81217 1.83631,2.21286 l 0.49803,0.72852 1.35405,0.60811 c 0.74473,0.33446 1.59217,0.79988 1.88322,1.03427 l 0.52916,0.42616 -1.05833,-0.17047 -1.05833,-0.17046 -0.81035,-0.48793 -0.81035,-0.48793 -0.36027,-0.67317 -0.36027,-0.67317 -2.65684,-1.63269 -2.65685,-1.63269 -3.11109,-3.09713 -3.1111,-3.09712 0.29798,0.55678 c 0.7359,1.37505 2.13299,3.38204 3.6248,5.20722 1.47411,1.80353 1.83653,2.37805 1.50012,2.37805 -0.38669,0 -1.81151,-0.77858 -3.2162,-1.75746 l -1.61624,-1.12632 -2.32063,-2.46071 c -1.27634,-1.3534 -2.72193,-3.05444 -3.21241,-3.7801 -1.336623,-1.97755 -1.076723,-1.17558 0.5917,1.82575 l 1.48348,2.66863 1.55924,1.89608 c 0.85758,1.04284 1.55924,2.0194 1.55924,2.17014 v 0.27407 l -1.37752,-0.71468 -1.37751,-0.71468 -2.30197,-2.3815 c -2.673283,-2.76566 -4.402963,-4.85706 -6.014863,-7.27271 l -1.14996,-1.72339 0.19204,0.66146 c 0.59506,2.04954 4.50331,8.51153 6.43921,10.64672 l 0.657193,0.72484 -0.17955,0.17955 -0.17955,0.17955 -0.698143,-0.37363 -0.69813,-0.37363 -2.61527,-2.75976 -2.61528,-2.75977 -1.23834,-1.87204 -1.23835,-1.87204 -0.97998,-2.26344 c -1.11639,-2.57847 -1.47541,-3.79323 -1.95064,-6.6001 l -0.33598,-1.98438 -0.0319,1.32292 -0.0319,1.32292 0.37373,2.1235 c 0.66278,3.76595 2.04245,7.19193 4.73833,11.76619 1.71775,2.91459 2.63339,3.87187 5.99342,6.26591 l 2.771813,1.97494 0.088,-0.26406 c 0.0484,-0.14523 -0.1563,-0.76972 -0.454899,-1.38775 -0.298601,-0.61804 -0.496321,-1.17029 -0.439381,-1.22723 0.0569,-0.0569 1.17628,0.44238 2.48744,1.1096 1.31115,0.66722 2.93062,1.37767 3.59882,1.57877 l 1.21491,0.36563 v -0.20826 c 0,-0.11454 -0.29766,-0.40329 -0.66146,-0.64166 l -0.66146,-0.43341 v -0.39581 -0.39582 l 0.72761,0.16925 c 0.40018,0.0931 1.25234,0.3946 1.89368,0.67002 0.64135,0.27543 1.65338,0.57634 2.24896,0.66869 l 1.08288,0.16791 -0.50403,-0.56831 -0.50403,-0.56831 0.37174,-0.001 c 0.20445,-8e-4 1.2647,0.34324 2.35611,0.7645 1.0914,0.42126 2.46062,0.93269 3.04271,1.13651 l 1.05833,0.37058 0.17059,9.24981 0.17059,9.24981 0.2985,3.70417 c 0.37823,4.69357 1.48867,13.38952 2.05555,16.09714 l 0.43427,2.07423 -0.33618,0.20777 c -1.13271,0.70006 -14.87252,1.56747 -18.40374,1.16185 z m 43.2326,-41.73749 0.59463,-0.63296 -0.43914,-0.35923 c -0.65385,-0.53487 -2.98935,-2.87277 -2.86981,-2.87277 0.0569,0 0.72665,0.41015 1.48839,0.91144 1.35244,0.89002 4.35336,2.16151 4.57602,1.93886 0.0615,-0.0615 -0.45879,-0.51961 -1.15618,-1.01803 -0.69738,-0.49843 -1.85724,-1.54706 -2.57745,-2.33029 l -1.30948,-1.42407 1.61935,1.04466 1.61935,1.04465 4.06919,1.34852 4.0692,1.34851 2.60535,0.32356 2.60536,0.32357 2.09952,-0.17509 2.09952,-0.17509 1.42258,-0.53226 c 0.78242,-0.29274 1.55678,-0.69396 1.72081,-0.8916 l 0.29823,-0.35934 -3.25069,0.1394 -3.25068,0.1394 -2.31384,-0.30892 -2.31384,-0.30892 -2.05179,-0.68547 c -1.12848,-0.37701 -2.76616,-1.04206 -3.63928,-1.4779 -1.52037,-0.75891 -2.4374,-1.33314 -8.99584,-5.63304 -2.96435,-1.94352 -5.70914,-3.42457 -8.07467,-4.35698 l -1.31803,-0.51952 v 0.50808 c 0,0.27945 0.12239,0.83001 0.27198,1.22346 0.42457,1.1167 0.0875,1.07143 -0.49291,-0.0662 l -0.52242,-1.02404 -0.18388,-1.22616 -0.18387,-1.22616 0.17969,-0.81815 0.1797,-0.81815 h 0.4869 c 0.80098,0 6.25173,2.68349 9.78981,4.81968 1.81901,1.09827 4.90774,2.96336 6.86385,4.14465 l 3.55656,2.14779 2.66115,1.03982 2.66114,1.03983 1.82035,0.31643 1.82033,0.31644 2.67758,-0.13094 2.67758,-0.13093 1.51921,-0.58188 1.51921,-0.58189 0.79589,-0.7959 c 0.43774,-0.43774 0.7959,-0.90885 0.7959,-1.04691 v -0.25103 l -0.78064,0.40368 c -0.42934,0.22202 -1.53067,0.58051 -2.44739,0.79663 l -1.66677,0.39296 -2.59084,0.004 -2.59084,0.004 -2.03937,-0.40826 -2.03936,-0.40825 -2.38125,-1.13784 -2.38125,-1.13784 -1.98438,-1.58868 c -1.0914,-0.87377 -2.20508,-1.83815 -2.47483,-2.14307 l -0.49046,-0.55441 1.4165,0.52871 c 0.77907,0.29079 2.369,0.92924 3.53317,1.41877 2.14578,0.90231 4.89479,1.79226 4.89479,1.58461 0,-0.0625 -0.58611,-0.41058 -1.30246,-0.77358 -1.66611,-0.84429 -4.53437,-2.81689 -5.709,-3.92629 l -0.26458,-0.24989 0.52916,0.26436 c 1.56155,0.78012 8.53503,2.86295 8.7766,2.62138 0.0655,-0.0655 -0.45369,-0.33691 -1.15375,-0.60314 l -1.27285,-0.48405 -2.71197,-1.81765 c -1.49159,-0.9997 -2.71198,-1.85128 -2.71198,-1.89239 0,-0.0411 0.80142,0.21616 1.78093,0.5717 1.96443,0.71306 7.29972,2.20545 7.81462,2.18592 0.17948,-0.007 -0.22796,-0.22915 -0.90541,-0.49409 -1.75312,-0.68562 -8.0417,-4.24243 -7.51713,-4.25168 0.13583,-0.002 0.90973,0.22587 1.71979,0.50725 1.61501,0.561 7.69192,1.95645 7.84655,1.80182 0.0531,-0.0531 -0.52583,-0.31607 -1.28651,-0.58437 -1.66414,-0.58698 -5.14525,-2.31042 -5.88097,-2.91157 l -0.52917,-0.43238 0.52917,0.13188 c 0.29104,0.0725 1.00542,0.20788 1.5875,0.30076 0.58208,0.0929 1.91652,0.33736 2.96541,0.54328 1.04889,0.20592 2.12045,0.37078 2.38125,0.36635 l 0.47417,-0.008 -0.39687,-0.23214 c -0.21828,-0.12767 -1.28984,-0.55702 -2.38125,-0.95409 l -1.98438,-0.72196 -5.42395,-0.0358 -5.42396,-0.0358 -1.01553,-0.45349 c -0.55853,-0.24942 -1.47711,-0.81908 -2.04128,-1.26591 l -1.02576,-0.81242 -0.83777,-1.70175 -0.83777,-1.70175 -0.13076,-2.97968 -0.13076,-2.97969 0.31492,-1.51328 0.31491,-1.51327 0.8268,-1.66173 0.8268,-1.66172 1.3632,-1.32291 c 0.74975,-0.72761 1.76899,-1.55346 2.26497,-1.83523 l 0.90178,-0.51231 -0.38432,0.51231 c -0.21138,0.28177 -0.589,0.75043 -0.83915,1.04148 -0.25016,0.29104 -0.93141,1.37281 -1.51389,2.40394 l -1.05906,1.87478 -0.46015,1.56481 -0.46016,1.5648 -0.003,2.38125 -0.003,2.38125 0.48309,1.44674 0.48309,1.44674 1.35685,1.35684 1.35684,1.35684 1.5793,0.60282 1.5793,0.60281 2.51354,0.12063 2.51354,0.12063 1.5875,-0.49365 1.5875,-0.49365 0.0805,-0.95655 0.0806,-0.95655 -3.52013,-0.0947 -3.52014,-0.0947 -1.28973,-0.65642 -1.28974,-0.65642 -0.7534,-0.91401 -0.7534,-0.91401 -0.40426,-1.18642 -0.40426,-1.18644 v -1.22776 -1.22776 l 0.39427,-1.32764 0.39427,-1.32764 0.76448,-1.05534 0.76448,-1.05533 1.28865,-0.55408 c 0.70875,-0.30474 1.64583,-0.62965 2.08239,-0.72202 l 0.79375,-0.16794 -1.32637,0.66617 -1.32637,0.66617 -0.45957,0.77798 c -0.25254,0.42789 -0.45934,1.02211 -0.45934,1.32048 v 0.5425 l 0.85989,0.13187 c 0.47294,0.0725 1.27662,0.19807 1.78594,0.27898 1.1614,0.1845 3.55374,1.28767 4.71767,2.17544 l 0.88506,0.67507 0.9028,1.41131 c 0.49654,0.77622 0.9028,1.59562 0.9028,1.82089 v 0.40959 h 0.30228 0.30227 l -0.16007,-1.53146 -0.16007,-1.53147 -0.38275,-0.91593 c -0.21052,-0.50376 -0.63986,-1.24275 -0.95411,-1.6422 l -0.57135,-0.72627 0.43083,0.16533 c 0.23695,0.0909 1.00477,0.87466 1.70628,1.74164 l 1.27546,1.57632 0.56166,1.89504 c 0.30892,1.04227 0.56129,2.1559 0.56083,2.47473 l -8e-4,0.5797 0.26459,0.16352 0.26458,0.16353 -0.007,-2.19843 -0.007,-2.19843 -0.63035,-1.85208 -0.63034,-1.85208 0.63738,0.79375 c 1.1275,1.40409 2.32811,4.63918 2.9458,7.93749 l 0.19819,1.05834 0.0855,-1.5875 0.0855,-1.5875 -0.27005,-1.98438 c -0.14853,-1.0914 -0.35147,-2.40109 -0.45098,-2.91041 l -0.18093,-0.92604 0.16731,0.15134 c 0.092,0.0832 0.45424,0.91668 0.80495,1.85209 0.3507,0.9354 0.88526,2.29604 1.18791,3.02365 0.30265,0.7276 0.68905,2.03729 0.85867,2.91041 l 0.30839,1.5875 0.12662,-0.36188 c 0.11938,-0.34121 -0.3407,-6.12091 -0.62411,-7.8402 l -0.13083,-0.79375 0.8142,1.85208 c 0.44781,1.01865 1.0758,2.86412 1.39553,4.10105 l 0.58132,2.24895 0.0847,-0.55843 c 0.0466,-0.30714 -0.1004,-2.32086 -0.32666,-4.47493 -0.22627,-2.15407 -0.37757,-3.95031 -0.33624,-3.99164 0.0768,-0.0768 1.08524,2.89718 2.02857,5.9823 l 0.52586,1.71979 -0.13276,-2.64584 c -0.0731,-1.4552 -0.19424,-3.30067 -0.26931,-4.10104 l -0.13648,-1.4552 0.25061,0.39687 c 0.13784,0.21828 0.51764,1.40891 0.84399,2.64583 0.32636,1.23693 0.70364,2.42756 0.8384,2.64584 l 0.24501,0.39687 -0.14836,-3.07311 -0.14835,-3.0731 -0.39984,-1.13326 -0.39983,-1.13326 -1.39305,-1.61447 c -0.76617,-0.88796 -1.74327,-2.08649 -2.17133,-2.6634 -0.42806,-0.57692 -1.01945,-1.29129 -1.3142,-1.5875 -0.89125,-0.89565 -5.71115,-4.84089 -6.86746,-5.62124 -1.96678,-1.32729 -3.95349,-2.81862 -7.1675,-5.3803 -1.74625,-1.39182 -4.30609,-3.39396 -5.68854,-4.44919 -5.45682,-4.16524 -7.4586,-5.8076 -9.47756,-7.77585 -1.15684,-1.12779 -2.23607,-2.050519 -2.39831,-2.050519 h -0.29496 v -0.39522 -0.39522 l -1.09803,-0.79541 -1.09804,-0.7954 -0.42332,0.008 -0.42332,0.008 0.52917,0.2984 c 0.29104,0.16412 0.9148,0.63196 1.38613,1.03964 l 0.85697,0.74123 -2.17989,0.0768 -2.17988,0.0768 1.82833,0.34586 1.82833,0.345849 0.8175,0.42727 0.81751,0.42727 -0.79375,0.1979 c -0.43657,0.10885 -1.47997,0.33526 -2.31867,0.50315 l -1.52492,0.30524 0.13444,0.21754 0.13445,0.21754 0.9936,-0.23072 c 0.54648,-0.1269 1.6265,-0.23357 2.40005,-0.23704 l 1.40646,-0.006 0.55703,0.29812 0.55702,0.29811 -2.22806,0.5623 -2.22807,0.56231 -0.65419,0.4625 c -0.75288,0.53228 -0.62095,0.58452 0.43853,0.17364 0.40965,-0.15887 1.48241,-0.39558 2.38391,-0.52602 l 1.63908,-0.23718 0.60988,0.24468 0.60987,0.24467 -0.52916,0.0369 -0.52917,0.0369 0.84091,0.3106 c 0.46249,0.17083 0.91206,0.38314 0.99904,0.4718 l 0.15814,0.16119 -1.76081,0.1804 -1.7608,0.1804 -0.71272,0.36856 c -0.71214,0.36828 -1.55867,1.19722 -1.2226,1.19722 0.0978,0 0.53943,-0.187 0.9814,-0.41555 l 0.80357,-0.41554 2.29214,-0.13236 2.29215,-0.13235 1.05833,0.67765 1.05833,0.67766 -1.45521,-0.15672 -1.4552,-0.15671 -1.69187,0.57181 -1.69187,0.57182 -0.89502,0.68266 c -0.49226,0.37547 -0.85742,0.72027 -0.81147,0.76622 0.0459,0.046 0.67427,-0.19851 1.39626,-0.54325 l 1.31272,-0.6268 1.63195,-0.33585 1.63196,-0.33586 1.67533,0.49006 c 0.92144,0.26953 1.75888,0.55923 1.86099,0.64377 l 0.18566,0.15371 -1.35466,-0.0947 -1.35467,-0.0947 -0.98841,0.29614 c -0.54363,0.16288 -1.66503,0.6059 -2.49201,0.9845 l -1.50359,0.68837 0.24614,0.24614 0.24614,0.24614 0.76904,-0.38291 c 1.05753,-0.52655 3.23568,-1.06494 4.28562,-1.05932 l 0.87075,0.005 0.37783,0.37783 0.37783,0.37783 -1.18603,-0.0943 c -0.65231,-0.0519 -1.37721,-0.021 -1.61088,0.0687 l -0.42486,0.16304 0.994,0.78993 c 1.15289,0.9162 1.14358,0.92373 -0.46461,0.37577 l -1.21552,-0.41418 -1.00212,0.0834 -1.00211,0.0834 1.6276,1.31461 c 0.89518,0.72303 1.60349,1.33872 1.57403,1.36818 -0.0295,0.0295 -1.06152,-0.23837 -2.29345,-0.59519 -1.23194,-0.35682 -2.42135,-0.61382 -2.64313,-0.57111 l -0.40325,0.0777 1.9652,1.56801 1.96521,1.568 -0.29843,0.0995 c -0.16413,0.0547 -0.52076,-0.0195 -0.79251,-0.16495 -0.27175,-0.14543 -1.32014,-0.45416 -2.32977,-0.68606 -1.00963,-0.23189 -2.07382,-0.48811 -2.36486,-0.56937 l -0.52916,-0.14774 1.71979,1.18349 c 0.94588,0.65092 2.07698,1.57256 2.51354,2.04808 l 0.79375,0.86459 -0.52917,-0.19516 c -0.59329,-0.2188 -6.27607,-1.73705 -6.48229,-1.73184 -0.0728,0.002 0.46302,0.37423 1.19063,0.82754 1.60781,1.00169 4.36327,3.19076 4.36463,3.46747 l 0.001,0.20068 -0.46302,-0.25055 c -0.58878,-0.31861 -6.77294,-2.13117 -6.88588,-2.01823 -0.0464,0.0464 0.71073,0.58659 1.68258,1.20037 1.84729,1.16667 4.55471,3.20771 4.5884,3.45905 0.0108,0.0804 -1.73658,-0.42618 -3.88302,-1.12572 -2.14643,-0.69955 -4.07332,-1.24146 -4.28197,-1.20426 l -0.37937,0.0677 1.93433,1.0133 c 1.74045,0.91174 5.65703,3.61885 5.48481,3.79107 -0.038,0.038 -0.71869,-0.15378 -1.51266,-0.42618 -3.54347,-1.21566 -6.50259,-2.12973 -6.8676,-2.12136 l -0.39688,0.009 2.24896,1.18098 2.24896,1.18099 1.71979,1.35568 c 0.94589,0.74563 1.5412,1.28883 1.32292,1.2071 -0.21828,-0.0817 -1.23032,-0.40292 -2.24896,-0.71378 -1.01865,-0.31086 -2.78217,-0.85365 -3.91894,-1.2062 -2.90983,-0.90242 -2.9974,-0.80474 -0.4349,0.48509 2.00689,1.01017 5.95345,3.59481 5.75508,3.76905 -0.0431,0.0378 -1.80473,-0.49207 -3.91478,-1.17758 -2.11005,-0.68551 -4.19365,-1.32855 -4.63021,-1.42898 l -0.79375,-0.1826 2.92145,1.53865 c 1.6068,0.84626 3.5118,1.99782 4.23333,2.55903 l 1.31189,1.02039 -0.52917,-0.2128 c -0.29104,-0.11704 -1.8565,-0.60068 -3.47879,-1.07475 -1.6223,-0.47408 -3.19205,-0.99169 -3.48834,-1.15026 -0.29629,-0.15857 -0.75489,-0.28401 -1.01912,-0.27876 l -0.48042,0.01 2.77813,1.44781 2.77812,1.44782 0.92604,0.81564 0.92605,0.81565 -0.52917,-0.17734 c -1.96974,-0.66011 -6.72942,-2.07718 -7.27604,-2.16626 l -0.66146,-0.10779 1.61671,0.77168 c 1.63476,0.78029 6.01205,3.48447 5.86911,3.62579 -0.0818,0.0809 -6.36281,-1.56073 -7.15509,-1.87004 l -0.46302,-0.18077 v 0.17719 c 0,0.0975 0.80367,0.5405 1.78594,0.98455 1.81538,0.82067 5.43695,2.8749 5.30041,3.00651 -0.14146,0.13634 -4.83812,-0.93808 -6.41012,-1.46641 -2.28939,-0.76942 -2.38862,-0.63871 -0.27936,0.36797 2.12355,1.0135 6.62845,3.72265 5.795,3.48499 -0.30525,-0.087 -1.43634,-0.33212 -2.51354,-0.54461 -1.0772,-0.21249 -2.61338,-0.566 -3.41375,-0.78557 -0.80036,-0.21958 -1.51474,-0.39742 -1.5875,-0.39522 -0.0728,0.002 1.46589,0.83102 3.41922,1.84181 1.95333,1.01078 3.67973,1.96849 3.83645,2.12823 l 0.28496,0.29045 -0.66146,-0.1429 c -0.3638,-0.0786 -1.89673,-0.39412 -3.40651,-0.70117 -1.50977,-0.30706 -2.93852,-0.6165 -3.175,-0.68766 -0.23647,-0.0712 0.87974,0.56556 2.48047,1.41494 3.36953,1.78794 4.10104,2.24098 4.10104,2.53985 v 0.21656 l -0.25022,-0.15465 c -0.22279,-0.13769 -5.71695,-1.21277 -6.08467,-1.19063 -0.0811,0.005 1.04322,0.6342 2.49843,1.39848 3.06461,1.60954 4.62308,2.559 4.20274,2.56041 -0.16234,5.3e-4 -1.63574,-0.30163 -3.27422,-0.67149 l -2.97905,-0.67248 -0.1538,0.15381 -0.15381,0.15381 0.6499,0.1638 c 0.35745,0.0901 2.05549,0.88685 3.77342,1.77056 l 3.1235,1.60675 -0.30258,0.10086 c -0.26683,0.0889 -2.46458,-0.26408 -4.1585,-0.66797 l -0.59531,-0.14194 v 0.24861 0.2486 l 2.47527,0.9797 c 1.3614,0.53883 2.70086,1.15693 2.97657,1.37355 l 0.50129,0.39386 -0.92605,-0.12715 c -0.50932,-0.0699 -1.64041,-0.19496 -2.51354,-0.27784 l -1.5875,-0.15069 0.41267,0.25682 c 0.22696,0.14126 1.35805,0.57395 2.51354,0.96154 1.76775,0.59297 4.86205,2.00887 3.50643,1.60449 -0.24558,-0.0733 -1.18068,-0.26632 -2.07799,-0.42903 l -1.63147,-0.29584 -0.14544,0.14544 -0.14544,0.14544 1.03281,0.42283 c 0.56804,0.23255 1.92578,0.85399 3.01718,1.38097 1.09141,0.52697 2.07244,0.93399 2.18008,0.90447 0.10763,-0.0295 0.47914,0.39241 0.82557,0.93761 0.34644,0.5452 0.90364,1.2294 1.23823,1.52044 l 0.60835,0.52917 -0.19978,-0.52917 c -0.10988,-0.29104 -0.41285,-1.18401 -0.67326,-1.98437 -0.26042,-0.80037 -0.55795,-1.69334 -0.66118,-1.98438 -0.10322,-0.29104 0.40845,0.46605 1.13706,1.68243 0.7286,1.21638 1.78045,2.86509 2.33744,3.66381 1.15826,1.66094 3.53385,4.31106 3.86447,4.31106 h 0.22217 l -0.13665,-0.22111 -0.13665,-0.22111 0.23058,-0.77108 0.23059,-0.77108 0.043,0.79375 c 0.0572,1.05585 0.19265,1.73356 0.385,1.92591 l 0.15763,0.15763 0.77751,-0.90948 0.77751,-0.90948 0.0108,1.25677 0.0107,1.25677 h 0.35075 c 0.19292,0 0.61834,-0.28482 0.94539,-0.63295 z m -50.244063,-2.49024 c 0,-0.11704 -0.35719,-0.77601 -0.79375,-1.4644 -0.43657,-0.68839 -0.79375,-1.3593 -0.79375,-1.49092 0,-0.13162 -0.44649,-0.76563 -0.99219,-1.40891 -2.90634,-3.42606 -4.96348,-6.75375 -6.53345,-10.56871 l -0.95204,-2.31343 -0.41474,-2.00544 -0.41473,-2.00544 -0.18869,-2.82488 -0.18869,-2.82488 -0.22051,1.83131 -0.22049,1.83131 0.15319,2.6666 0.1532,2.66661 0.82801,2.91042 0.82802,2.91041 1.03499,2.21122 c 0.56925,1.21618 1.52718,2.94258 2.12873,3.83646 l 1.09373,1.62524 2.41585,2.30194 2.41585,2.30194 0.33073,0.0132 c 0.1819,0.007 0.33073,-0.0826 0.33073,-0.19962 z m -6.84089,-4.71308 c -0.72045,-1.43812 -2.24419,-4.46123 -3.38608,-6.71801 l -2.07616,-4.10325 -0.66146,-1.98217 -0.66145,-1.98217 v -3.96875 c 0,-2.18281 0.0842,-4.80219 0.18712,-5.82083 l 0.18713,-1.85209 -0.36183,0.96364 c -0.19901,0.53 -0.61063,2.52599 -0.91473,4.43554 l -0.5529,3.4719 0.0193,2.04675 c 0.0106,1.12572 0.10834,2.67184 0.21715,3.43582 l 0.19783,1.38906 h -0.17697 c -0.30189,0 -1.04167,-1.91462 -1.31739,-3.40955 l -0.26285,-1.42517 v -3.56754 -3.56753 l 0.55147,-3.8039 c 0.30332,-2.09214 0.50993,-3.92855 0.45914,-4.08091 -0.0508,-0.15236 -0.66686,2.00098 -1.36906,4.7852 l -1.27673,5.06221 -0.25973,2.80331 -0.25973,2.80331 0.26753,2.46203 0.26754,2.46202 0.85461,2.71482 c 0.47004,1.49316 0.94901,2.82344 1.06438,2.95619 l 0.20976,0.24136 0.18291,-1.14383 0.1829,-1.14384 0.77063,1.52401 c 0.5875,1.16185 2.67549,4.26691 3.82141,5.68285 0.0491,0.0606 0.15174,0.0477 0.22816,-0.0287 0.0764,-0.0764 -0.11135,-0.72134 -0.41725,-1.43316 -0.30591,-0.71182 -0.90422,-2.64172 -1.32957,-4.28866 l -0.77337,-2.99445 0.0161,-0.84201 0.0161,-0.84202 0.52133,1.94116 0.52134,1.94115 0.90308,1.76301 c 1.19678,2.33637 2.06693,3.58106 3.97527,5.6864 l 1.5875,1.75138 0.0788,-0.3549 0.0788,-0.3549 -1.30992,-2.61478 z m -11.95685,-19.94497 0.25582,-5.95313 0.53724,-3.175 c 0.29548,-1.74625 0.71256,-3.8243 0.92684,-4.6179 0.47635,-1.76419 0.35194,-2.04417 -0.21835,-0.4914 -0.23039,0.6273 -0.7192,1.95825 -1.08623,2.95767 -0.36704,0.99941 -1.08892,3.49972 -1.60419,5.55624 l -0.93685,3.73914 -0.15877,2.53368 -0.15877,2.53368 0.31488,2.22882 c 0.3609,2.55448 0.88441,4.78495 1.39252,5.93299 l 0.35131,0.79375 0.0644,-3.04271 c 0.0354,-1.67349 0.17948,-5.72162 0.32018,-8.99583 z m -2.81636,1.52135 c 0.248,-2.21919 0.57752,-5.52318 0.73225,-7.34219 0.35121,-4.12874 0.78689,-6.43709 1.8289,-9.69005 0.4495,-1.40324 0.77689,-2.67249 0.72753,-2.82056 l -0.0897,-0.26921 -1.23688,2.88418 c -1.65758,3.86515 -2.16522,5.40194 -2.84955,8.62653 l -0.57817,2.72432 -0.004,3.43958 -0.004,3.43959 0.31751,1.52135 0.31751,1.52136 h 0.19353 0.19353 l 0.45091,-4.0349 z m -2.22736,-7.34335 c 0.44361,-1.67285 1.10598,-4.47029 1.47193,-6.21654 l 0.66536,-3.175 1.0625,-3.16261 c 0.58437,-1.73944 1.0625,-3.28024 1.0625,-3.42402 0,-0.81308 -2.82198,4.60709 -3.56704,6.85121 -1.3484,4.06135 -2.45769,11.48186 -1.81282,12.12673 0.25813,0.25814 0.24248,0.30015 1.11757,-2.99977 z m 0.0431,-10.45286 c 0.60112,-1.59909 1.39247,-3.85993 1.75854,-5.0241 0.36607,-1.16417 0.74855,-2.23573 0.84995,-2.38125 0.10141,-0.14552 0.32415,-0.59201 0.495,-0.99219 l 0.31063,-0.7276 h -0.24506 -0.24505 l -1.2623,2.3151 -1.26229,2.31511 -0.85536,2.51354 -0.85536,2.51354 -0.17803,1.45521 -0.17803,1.45521 0.2872,-0.26757 c 0.15797,-0.14716 0.77904,-1.57591 1.38016,-3.175 z m 31.239523,-7.73608 0.3903,-1.25677 h 0.38376 0.38376 l 0.0821,0.99219 0.0821,0.99218 h 0.38921 0.3892 l 0.14923,-0.38887 0.14922,-0.38888 0.90081,-0.32573 c 0.49544,-0.17915 0.9008,-0.40541 0.9008,-0.50278 0,-0.0974 -0.56555,-0.33012 -1.25677,-0.5172 -0.69122,-0.18709 -1.55443,-0.48513 -1.91823,-0.66233 -0.3638,-0.17719 -0.91278,-0.39955 -1.21996,-0.49413 l -0.55851,-0.17195 -0.1634,1.19216 -0.16341,1.19217 0.15967,0.79835 c 0.2238,1.11899 0.46801,0.99731 0.92008,-0.45841 z m -56.058333,0.81696 c -0.1819,-0.0734 -0.47956,-0.0734 -0.66146,0 l -0.33073,0.13345 h 0.66146 0.66146 z m 54.126523,-2.47788 0.5351,-1.28759 -2.147243,-1.79996 -2.14724,-1.79997 -1.07341,-1.80102 -1.07342,-1.80103 -0.52917,0.12551 c -0.29104,0.069 -1.60073,0.56232 -2.91041,1.09621 l -2.38125,0.9707 -0.70852,0.66989 -0.70852,0.66989 -0.68054,1.836 c -0.3743,1.0098 -0.68055,2.06732 -0.68055,2.35003 v 0.51403 h 0.22708 c 0.12488,0 0.66067,-0.61939 1.19062,-1.37642 l 0.96355,-1.37643 v 1.68202 1.68201 l 0.52742,-0.47731 c 0.29008,-0.26251 0.72999,-0.93643 0.97757,-1.4976 l 0.45016,-1.02029 0.22455,0.22455 0.22455,0.22455 0.18732,1.69507 0.18732,1.69506 0.85951,-1.39304 c 0.47274,-0.76617 0.85952,-1.52023 0.85952,-1.67569 v -0.28266 l 0.33073,0.11618 0.33073,0.11619 -0.0516,1.49336 -0.0516,1.49337 h 0.22649 c 0.29574,0 1.58444,-1.53626 1.93604,-2.30794 0.15099,-0.33136 0.38798,-0.60248 0.52667,-0.60248 h 0.25216 l -0.18362,1.22445 c -0.10099,0.67345 -0.24631,1.38783 -0.32293,1.5875 l -0.13932,0.36305 h 0.49208 0.49208 l 1.03471,-1.65364 1.03471,-1.65365 0.0928,0.27598 c 0.0511,0.15179 -0.005,0.99359 -0.12527,1.87067 -0.11995,0.87709 -0.16837,1.74387 -0.1076,1.92618 l 0.1105,0.33149 0.606533,-0.56981 0.60654,-0.56981 z m -37.690793,-2.68805 c 0.54368,-1.79179 1.29639,-4.09124 1.67269,-5.10988 l 0.6842,-1.85209 0.53861,-0.59531 0.53862,-0.59531 0.54919,-0.002 c 0.30205,-10e-4 1.64684,0.25094 2.98843,0.55989 l 2.43923,0.56173 0.60347,-0.15947 0.60348,-0.15947 1.71979,-1.60478 c 3.83371,-3.57731 10.87497,-9.500999 12.27616,-10.327719 l 0.953,-0.562291 v -1.25797 c 0,-0.69188 -0.0765,-1.989796 -0.16998,-2.884276 l -0.16998,-1.62629 h -0.28298 c -0.78056,0 -14.23883,8.742817 -16.97185,11.025307 -1.01864,0.85073 -2.87887,2.344209 -4.13384,3.318849 -2.68551,2.08563 -3.42889,2.91766 -4.49668,5.03294 l -0.79312,1.57117 -0.64599,2.61085 -0.64599,2.61085 v 1.32166 1.32166 l 0.45619,0.25529 0.45618,0.2553 0.42134,-0.22549 0.42133,-0.22549 z m 53.877303,0.17403 c 2.51877,-0.58159 4.2663,-1.36106 6.00798,-2.67982 l 1.37777,-1.04322 0.95606,-1.25211 c 0.52584,-0.68867 1.40794,-2.17096 1.96023,-3.29398 l 1.00416,-2.04187 0.6835,-2.38125 c 0.37592,-1.309679 0.75993,-2.976559 0.85336,-3.704159 0.0934,-0.72761 0.27915,-1.75643 0.41271,-2.28627 l 0.24285,-0.96335 0.69266,-0.453851 0.69266,-0.45385 1.51529,-0.1374 1.51528,-0.13741 0.89848,0.30602 c 0.49415,0.16831 1.11129,0.46755 1.3714,0.664981 l 0.47293,0.35896 0.2656,1.64918 0.26559,1.64918 0.49345,0.96024 c 0.2714,0.52813 1.09919,1.61508 1.83953,2.415439 l 1.34609,1.45521 -0.003,-0.66146 c -0.002,-0.3638 -0.23696,-1.554429 -0.52301,-2.645829 l -0.5201,-1.98438 -0.003,-1.98437 -0.003,-1.984381 0.28847,-1.05833 0.28846,-1.058326 0.56995,-0.63125 0.56996,-0.63125 1.05833,-0.47418 1.05833,-0.47418 2.38125,-0.44706 2.38125,-0.44705 3.70417,0.006 3.70417,0.006 2.69656,0.42041 2.69657,0.42041 1.42185,0.53198 1.42185,0.53198 0.68562,0.72684 0.68563,0.72684 0.70977,1.702006 0.70978,1.702011 -0.006,2.79591 -0.006,2.79591 -0.43132,2.081559 c -0.23722,1.14486 -0.74508,2.9308 -1.12855,3.96875 l -0.69724,1.88719 -1.34412,1.34812 -1.34412,1.34813 -1.72946,0.57553 -1.72946,0.57552 -1.79216,0.16736 -1.79216,0.16735 -0.15275,0.39808 -0.15276,0.39809 0.72052,0.61976 0.72052,0.61976 h 1.0812 1.08119 l 1.86971,-0.55682 1.86971,-0.55682 1.48271,-1.00689 1.48271,-1.00689 0.67179,-0.88368 c 1.00794,-1.32586 1.47749,-2.35229 2.05724,-4.49706 l 0.52518,-1.9429 0.41944,-3.307289 c 0.23069,-1.81901 0.5391,-3.76006 0.68536,-4.31344 l 0.26592,-1.00614 0.47545,-0.44907 c 0.26149,-0.24698 0.73146,-0.65625 1.04438,-0.90949 l 0.56893,-0.460431 -0.0152,-1.39165 c -0.008,-0.765406 -0.0978,-1.855946 -0.19861,-2.423416 l -0.18336,-1.03177 -0.96438,-0.33388 c -1.27397,-0.44106 -6.7702,-1.55919 -10.41236,-2.11825 l -2.91042,-0.44674 -4.89479,-0.0158 -4.89479,-0.0158 -3.57188,0.59692 c -1.96453,0.32831 -4.39316,0.76941 -5.39694,0.98023 l -1.82507,0.3833 -3.59889,0.0246 -3.59889,0.0246 -3.28797,-0.83865 c -3.70519,-0.9451 -4.95309,-1.20736 -8.3537,-1.75566 l -2.38125,-0.38395 -4.7144,-0.1691 -4.7144,-0.16909 -3.88456,0.32256 c -5.617823,0.46649 -8.147543,0.73781 -10.168423,1.09058 l -1.78594,0.31176 v 2.95625 2.956246 l 1.11171,0.52231 1.11172,0.52232 0.47454,0.66146 0.47454,0.661461 0.53823,3.04271 c 0.29602,1.67349 0.8397,4.102659 1.20818,5.398159 l 0.66995,2.35545 0.92568,1.87788 0.92568,1.87788 0.84394,0.87905 c 0.464183,0.48348 1.530184,1.33871 2.368913,1.90051 l 1.52497,1.02145 1.51775,0.44239 c 0.83476,0.24331 2.29166,0.60512 3.23754,0.80402 l 1.71979,0.36163 2.77813,-0.0981 2.77812,-0.0981 z m -9.4698,-2.11556 c -1.92957,-0.419 -4.27674,-1.43954 -5.55738,-2.41633 l -0.89431,-0.68211 -0.90445,-1.41389 -0.904453,-1.41388 -0.79737,-2.37997 -0.79736,-2.37997 -0.40856,-2.723389 -0.40857,-2.7234 0.18002,-1.5627 0.18002,-1.562701 0.39637,-0.950836 c 0.218,-0.52296 0.63985,-1.29354 0.93746,-1.71239 l 0.54109,-0.76156 1.346874,-0.60938 1.346879,-0.60938 2.09624,-0.42675 2.09623,-0.42674 4.65064,0.005 4.65064,0.005 3.175,0.54802 3.175,0.54803 1.71979,0.7978 1.71979,0.7978 0.76019,0.71179 0.76019,0.71179 0.36429,0.851386 0.36429,0.8514 v 2.355821 2.35582 l -0.6544,2.5797 -0.65439,2.579689 -1.06046,2.19091 -1.06046,2.1909 -1.16135,1.16136 -1.16136,1.16135 -1.60479,0.85535 -1.60479,0.85534 -2.04361,0.52267 -2.04362,0.52266 -2.53737,-0.021 -2.53736,-0.021 z m -4.55312,-14.292029 1.98438,-0.98781 3.30729,-0.8976 c 3.80425,-1.03247 10.4207,-2.560731 13.03073,-3.009821 l 1.78593,-0.30729 v -0.19416 c 0,-0.10678 -0.62507,-0.506266 -1.38906,-0.887736 l -1.38906,-0.69359 -2.24896,-0.60475 -2.24896,-0.60475 -3.83646,-0.002 -3.83645,-0.002 -1.98438,0.4744 -1.98437,0.4744 -1.71979,0.87042 -1.71981,0.870416 -0.345609,0.70664 -0.345621,0.70664 -0.15777,2.785981 -0.15776,2.78599 0.635671,-0.24808 c 0.34962,-0.13644 1.528659,-0.6926 2.620059,-1.2359 z m 65.61946,-5.806287 -0.32658,-0.3935 0.15977,-0.41634 0.15976,-0.41634 0.96752,0.0822 0.96752,0.0822 0.29138,0.47054 0.29138,0.47055 -0.39688,0.252996 c -0.21828,0.13916 -0.70972,0.25483 -1.09208,0.25706 l -0.69521,0.004 z m -74.681453,-1.38094 -0.7276,-0.11278 v -0.77617 -0.77618 h 1.19893 1.19893 l 0.16609,0.43284 0.1661,0.43284 -0.26891,0.42705 c -0.29522,0.46887 -0.63724,0.54234 -1.73354,0.3724 z m -8.52416,20.692156 c 0.52956,-1.30969 1.39909,-3.3188 1.9323,-4.46468 l 0.96947,-2.08342 1.26592,-1.14023 1.26593,-1.14022 0.94258,-0.31108 0.94258,-0.31108 -0.18296,-1.227769 c -0.10064,-0.67528 -0.38009,-1.82261 -0.62101,-2.54962 l -0.43804,-1.32185 -0.41629,-0.0776 -0.41628,-0.0776 -1.70039,1.34345 c -2.0337,1.6068 -2.70914,2.36967 -3.57065,4.032799 l -0.64979,1.25441 -0.38057,1.65601 -0.38057,1.65601 -0.17543,4.10104 -0.17544,4.10104 0.4129,-0.52917 c 0.22709,-0.29104 0.84617,-1.60073 1.37574,-2.91041 z m 54.829343,-3.48909 c -0.25297,-0.0662 -0.72922,-0.0686 -1.05833,-0.005 l -0.5984,0.11507 1.05833,0.005 1.05834,0.005 -0.45994,-0.12041 z m 5.42785,-9.472259 1.67885,-0.92281 3.22514,-1.05904 c 2.41814,-0.79405 12.17592,-3.445341 12.68017,-3.445341 0.0384,0 0.0698,-0.10441 0.0698,-0.23201 v -0.232 l -1.30601,-0.561826 c -0.71831,-0.30901 -2.15484,-0.74038 -3.1923,-0.95862 l -1.88629,-0.39679 -3.09155,0.005 -3.09156,0.005 -1.71979,0.36544 c -0.94589,0.20098 -2.38797,0.66134 -3.20464,1.02302 l -1.48484,0.657596 -0.43339,0.61874 -0.43338,0.61875 v 2.719251 2.71925 h 0.25548 c 0.14051,0 1.01095,-0.41526 1.93431,-0.9228 z M 73.302057,78.922884 c -0.24442,-2.48053 -1.02844,-5.40199 -2.03735,-7.5917 -0.45179,-0.98056 -1.11307,-2.55674 -1.46952,-3.50263 -0.35645,-0.94588 -1.22102,-2.81177 -1.92127,-4.14642 l -1.27318,-2.42663 1.06707,0.77299 c 0.58689,0.42514 1.19054,0.77298 1.34145,0.77298 h 0.27439 l -0.6782,-0.72761 c -0.91955,-0.98653 -2.75406,-3.761244 -2.98367,-4.512825 l -0.18642,-0.610224 1.54391,1.160766 c 0.84916,0.638421 1.72012,1.264393 1.93548,1.391033 l 0.39155,0.23028 -0.52385,-0.673173 c -1.90336,-2.445909 -4.41435,-5.880814 -4.54181,-6.212969 l -0.1516,-0.395068 2.48166,1.861074 c 1.36491,1.023588 2.58321,1.86401 2.70734,1.867601 0.12413,0.0036 -0.53071,-0.826098 -1.45521,-1.843757 -1.85939,-2.046772 -4.19443,-4.998376 -4.19443,-5.301962 0,-0.107325 0.32742,0.08785 0.7276,0.433727 1.41632,1.224118 5.35781,4.053572 5.35781,3.846176 0,-0.115726 -0.31385,-0.499057 -0.69745,-0.851847 -1.23839,-1.138912 -4.53237,-4.990835 -5.12085,-5.988225 l -0.57164,-0.968856 0.3507,0.268287 c 0.81533,0.623732 4.91248,3.494183 5.64237,3.953031 l 0.79375,0.498991 -1.6833,-1.91702 c -0.92581,-1.054359 -1.79212,-1.984274 -1.92512,-2.066477 -0.41964,-0.259353 -2.87387,-3.300611 -2.87387,-3.561276 v -0.2491 l 1.1739,0.85815 c 0.64564,0.471979 2.01486,1.482343 3.0427,2.245251 2.01786,1.497729 2.36656,1.518557 1.01992,0.06092 -3.98996,-4.31881 -4.96833,-5.53788 -4.97095,-6.193882 l -0.001,-0.247939 0.72761,0.675222 c 0.40018,0.371372 1.8412,1.470078 3.20227,2.441564 l 2.47466,1.76634 -1.68091,-1.988971 c -3.45307,-4.085894 -4.44876,-5.313587 -4.45383,-5.491596 -0.006,-0.213717 4.28524,2.965802 5.3526,3.965824 1.25747,1.178147 0.80105,0.439565 -1.3879,-2.245897 -2.50056,-3.067743 -2.3954,-2.932136 -2.97981,-3.842822 -0.62645,-0.976214 -0.57913,-1.137277 0.16468,-0.560543 0.78595,0.609412 4.66295,3.506779 5.19521,3.882501 0.21829,0.154083 -0.0893,-0.249645 -0.68343,-0.897173 -1.71626,-1.870461 -4.079,-5.341556 -4.079,-5.992558 0,-0.102823 0.44649,0.232404 0.99219,0.744947 1.47885,1.388981 3.77031,3.219344 3.77031,3.011628 0,-0.100044 -0.69868,-1.152927 -1.55263,-2.339742 -1.40755,-1.956202 -2.84706,-4.406805 -2.5886,-4.406805 0.0566,0 0.63424,0.506016 1.2837,1.124479 2.51764,2.397461 3.65128,3.409574 3.65128,3.259865 0,-0.08571 -0.67246,-1.196554 -1.49434,-2.468533 -1.70013,-2.631154 -2.20982,-3.717332 -2.20982,-4.709197 v -0.693716 l 1.02478,1.28053 c 0.56363,0.704292 1.41796,1.637718 1.8985,2.074281 l 0.87372,0.79375 -0.6118,-1.058334 c -0.3365,-0.582083 -0.90275,-1.574657 -1.25834,-2.205717 l -0.64653,-1.147384 -0.33466,-1.630741 -0.33466,-1.630741 -0.99297,2.116667 c -1.94065,4.136784 -2.84171,6.38716 -3.7079,9.260416 l -0.8774,2.910417 -0.49073,2.778124 -0.49074,2.778125 0.006,4.365625 0.006,4.365625 0.34621,1.984375 c 0.49209,2.820596 1.76664,7.834278 2.56855,10.103868 0.37597,1.06407 2.09251,4.79217 3.81453,8.28467 3.08194,6.25063 4.05632,8.42177 4.54187,10.12031 0.13519,0.47295 0.31513,0.8599 0.39985,0.8599 h 0.15404 l -0.18429,-1.87025 z m 10.98639,0.36912 c 0.66725,-0.47692 1.97694,-1.22349 2.91042,-1.65906 l 1.69723,-0.79194 1.93553,-0.40518 1.93553,-0.40519 h 3.65764 3.657643 l 2.11962,0.40209 c 1.83569,0.34822 3.36244,0.79305 5.47947,1.59648 l 0.52917,0.20082 -0.66146,-0.53524 c -0.3638,-0.29438 -1.40593,-0.91018 -2.31584,-1.36845 l -1.65437,-0.83322 -2.18208,-0.52313 -2.1821,-0.52314 -3.042703,0.002 -3.04271,0.002 -1.66198,0.39184 c -0.91409,0.21551 -2.13779,0.63457 -2.71933,0.93126 -2.09201,1.06726 -6.33429,4.12905 -6.33431,4.57167 l -10e-6,0.21405 0.33073,-0.20033 c 0.1819,-0.11018 0.87666,-0.59053 1.54391,-1.06745 z m 3.8139,0.42407 c 0.72761,-0.25671 2.27542,-0.66512 3.43959,-0.90759 l 2.11666,-0.44084 2.91042,-0.0346 2.910423,-0.0346 1.28502,0.20945 1.28503,0.20946 -0.15818,-0.25596 -0.15819,-0.25595 -1.873609,-0.45915 -1.873604,-0.45915 -2.82511,0.13026 -2.82511,0.13027 -1.75261,0.59067 -1.7526,0.59067 -1.55469,0.91986 c -0.85508,0.50592 -1.31656,0.83302 -1.02552,0.72689 0.29104,-0.10613 1.12448,-0.403 1.85208,-0.65971 z m 11.310943,-5.71275 c -0.1819,-0.0734 -0.47956,-0.0734 -0.66146,0 l -0.330733,0.13346 h 0.661463 0.661461 z m 31.68595,-4.40351 c 1.03351,-1.06021 2.7454,-3.09315 3.8042,-4.51766 l 1.92509,-2.59 1.74858,-3.08649 c 0.96173,-1.697564 1.88024,-3.443671 2.04114,-3.880234 0.16091,-0.436562 0.75858,-1.74625 1.32817,-2.910416 1.03548,-2.116384 2.21457,-5.289431 3.01567,-8.115496 l 0.42546,-1.500912 -0.0246,-0.880338 -0.0246,-0.880337 0.38668,-1.322917 0.38668,-1.322916 -0.18907,-0.07413 c -0.10399,-0.04077 -1.7261,1.418558 -3.6047,3.242953 l -3.41562,3.317086 2.35179,-1.176203 c 1.29349,-0.646914 2.47816,-1.30257 2.63261,-1.457018 0.15444,-0.154447 0.40583,-0.278362 0.55862,-0.27537 l 0.27781,0.0054 -1.32291,1.193136 c -0.72761,0.656225 -2.13481,1.856028 -3.12711,2.66623 -0.99231,0.810202 -1.76421,1.513081 -1.71534,1.561955 0.0489,0.04887 1.20318,-0.443844 2.56514,-1.094926 1.36196,-0.651081 2.51615,-1.14392 2.56488,-1.095195 0.0487,0.04872 -1.16118,1.200232 -2.68867,2.558907 -1.52748,1.358675 -2.72529,2.522278 -2.66178,2.585786 0.14859,0.148585 2.80683,-1.180737 3.39392,-1.697214 l 0.44771,-0.393864 0.32236,0.10745 0.32235,0.107452 -2.09298,1.838677 c -1.15114,1.011272 -2.45017,2.105816 -2.88673,2.432322 l -0.79375,0.593646 2.0854,-0.934339 c 1.14697,-0.513884 2.13849,-0.881248 2.20338,-0.816359 0.22647,0.226468 -1.87212,2.315864 -3.4085,3.393573 -0.85168,0.597421 -1.4995,1.135226 -1.43961,1.195122 0.0599,0.0599 0.83193,-0.256077 1.71563,-0.702167 0.8837,-0.446092 1.69663,-0.811075 1.80651,-0.811075 0.10987,0 -0.74714,0.9525 -1.90448,2.116667 l -2.10425,2.116667 h 0.30891 c 0.1699,0 0.38209,-0.118423 0.47155,-0.26316 0.0894,-0.144738 0.39198,-0.385903 0.67229,-0.535922 l 0.50966,-0.272759 -1.49801,2.586448 c -1.40095,2.41886 -4.21394,6.35215 -7.12652,9.96473 l -1.25567,1.55747 0.56677,-0.30333 c 0.31173,-0.16683 1.41238,-1.17077 2.4459,-2.23097 z m -48.550513,-2.45069 0.61922,-3.19296 0.45028,-4.34766 0.45027,-4.347657 -0.16646,-3.364291 c -0.0916,-1.850361 -0.34299,-4.70786 -0.55874,-6.35 l -0.39226,-2.985708 -0.67742,-2.602842 c -1.11832,-4.296872 -2.44769,-7.351696 -5.11817,-11.76126 -0.81868,-1.351817 -1.80839,-3.078223 -2.19935,-3.836458 l -0.71083,-1.378606 -0.0168,0.442928 c -0.009,0.24361 0.77098,2.386735 1.7338,4.7625 3.34353,8.250271 4.38858,11.500344 4.87352,15.156563 0.13591,1.024654 0.32607,2.160664 0.42258,2.524466 l 0.17548,0.661458 -0.70066,-0.641432 c -0.83157,-0.76128 -0.87932,-0.623466 -0.19408,0.560163 0.27861,0.481261 0.65487,1.381802 0.83614,2.001205 l 0.32957,1.126183 -0.17745,0.177445 -0.17744,0.177443 -0.83181,-0.774462 -0.8318,-0.774461 0.15501,0.396875 c 0.0853,0.218281 0.52776,1.266909 0.98334,2.330283 l 0.82832,1.933408 -0.0826,0.365863 -0.0826,0.365863 -1.14714,-1.0425 c -1.39488,-1.267643 -1.60384,-1.319255 -0.73928,-0.182605 0.70676,0.929182 1.83971,3.111206 2.15455,4.149603 l 0.19523,0.643874 -1.06351,-0.842312 c -0.58492,-0.463272 -1.13196,-0.842311 -1.21563,-0.842311 -0.0837,0 0.2603,0.803672 0.76438,1.785937 l 0.91653,1.785938 10e-4,0.651517 0.001,0.65151 -1.3809,-1.312973 c -0.75956,-0.722135 -1.19288,-1.074846 -0.96301,-0.783804 0.72062,0.912397 2.34384,3.999207 2.34384,4.457197 v 0.43759 h -0.23218 c -0.1277,0 -0.38502,-0.18415 -0.57181,-0.40922 -0.1868,-0.22507 -0.7074,-0.66961 -1.15688,-0.98785 l -0.81725,-0.57863 0.51598,0.78941 c 0.87512,1.33887 1.6357,2.86883 1.83928,3.69984 l 0.19445,0.79375 -1.24122,-1.19063 c -0.68268,-0.65484 -1.19181,-1.07156 -1.13141,-0.92604 0.0604,0.14552 0.55018,1.15755 1.08842,2.24896 l 0.9786,1.98437 0.32872,1.38527 0.32873,1.38526 0.2253,-0.59151 c 0.12392,-0.32534 0.50395,-2.02835 0.84452,-3.78449 z m 39.767853,-1.95593 c 1.40958,-1.01289 2.85874,-2.07631 3.22037,-2.36316 l 0.65751,-0.52154 -0.18623,-0.18623 -0.18623,-0.18622 -0.67135,0.43988 c -0.36924,0.24194 -0.98508,0.55917 -1.36852,0.70495 l -0.69718,0.26507 0.36808,-0.50305 c 1.63637,-2.23639 2.69308,-3.49226 3.32693,-3.953991 l 0.74435,-0.542218 -0.15772,-0.157718 -0.15772,-0.157718 -1.23086,0.68794 -1.23086,0.687945 10e-4,-0.353356 c 5.3e-4,-0.194341 0.44789,-0.94866 0.99392,-1.676265 1.89327,-2.522862 2.3312,-3.475915 1.07468,-2.338773 l -0.48548,0.439348 -0.16237,-0.162367 -0.16236,-0.162366 1.36075,-1.996774 1.36075,-1.996776 h -0.25572 c -0.14064,0 -0.45312,0.267891 -0.69438,0.595313 l -0.43867,0.595312 0.17999,-1.058333 c 0.099,-0.582083 0.41456,-1.592715 0.70125,-2.245847 0.2867,-0.653134 0.63842,-1.710256 0.7816,-2.349158 0.14318,-0.638905 0.74582,-2.30718 1.3392,-3.707278 1.03748,-2.447949 4.56297,-9.672545 4.98649,-10.218549 0.82521,-1.063863 5.42031,-10.677726 5.20601,-10.892023 -0.0519,-0.05188 -0.61881,0.741188 -1.25983,1.762382 -0.64103,1.021194 -2.63451,4.007138 -4.42997,6.63543 l -3.26446,4.778713 -1.67756,3.355665 -1.67757,3.355666 -1.17284,3.174999 c -2.02883,5.492205 -5.18288,15.619987 -5.86198,18.823027 -0.0969,0.45725 -0.52419,1.37999 -0.94943,2.05052 -0.42524,0.67054 -0.70869,1.21916 -0.62988,1.21916 0.0788,0 1.29658,-0.82872 2.70615,-1.84161 z m 13.01391,-3.48128 v -0.26459 l -0.26459,0.16352 c -0.14552,0.0899 -0.26458,0.28259 -0.26458,0.42811 v 0.26458 l 0.26458,-0.16352 c 0.14552,-0.0899 0.26459,-0.28258 0.26459,-0.4281 z M 120.67301,47.629489 c 0.53627,-0.986266 0.31144,-1.189178 -0.29393,-0.265269 -0.25905,0.395364 -0.80123,1.083688 -1.20484,1.529609 -0.40361,0.445924 -1.2314,1.465612 -1.83954,2.265976 l -1.10569,1.455209 2.0175,-2.116667 c 1.10963,-1.164166 2.20155,-2.455153 2.4265,-2.868858 z m 24.11863,-8.768442 1.22631,-1.11025 0.11039,-2.524019 0.11039,-2.524019 -0.59205,-2.743872 c -0.7045,-3.265011 -1.54427,-6.627852 -1.692,-6.775585 -0.0582,-0.05821 -0.23787,0.509757 -0.39923,1.262158 l -0.29338,1.368002 -0.94987,1.974857 c -0.52243,1.086173 -0.88694,2.037795 -0.81001,2.114717 0.0769,0.07692 0.59068,-0.539123 1.14168,-1.368991 l 1.00181,-1.50885 0.0903,0.270978 c 0.0497,0.149037 -0.33005,1.105723 -0.84383,2.12597 l -0.93416,1.854991 -0.86637,0.831024 -0.86637,0.831027 1.05472,-0.427318 c 1.05178,-0.426125 1.97557,-1.115443 2.842,-2.120656 l 0.45714,-0.530363 0.006,0.276598 c 0.003,0.15213 -1.02093,1.556176 -2.27592,3.120107 l -2.2818,2.843506 0.16514,0.165137 0.16513,0.165137 v -0.271219 -0.271222 l 1.46362,-0.971788 c 0.80499,-0.534482 1.94499,-1.406678 2.53333,-1.93821 l 1.06972,-0.966425 -0.54341,0.921017 c -0.29888,0.506558 -1.62766,2.076273 -2.95285,3.488251 -2.38849,2.544913 -2.70166,3.02691 -1.34667,2.072618 0.38627,-0.272036 1.23808,-0.761121 1.89293,-1.086852 0.65484,-0.325734 1.57758,-0.959948 2.05052,-1.409372 l 0.8599,-0.817129 v 0.2677 c 0,0.147236 -1.36922,1.683401 -3.04271,3.413705 -1.67349,1.7303 -3.04271,3.187033 -3.04271,3.237179 0,0.05015 0.95987,-0.408204 2.13305,-1.018558 l 2.13305,-1.109734 1.2263,-1.110247 z M 70.100847,22.650953 c -0.10931,-0.254662 -0.35214,-0.998802 -0.53962,-1.653646 l -0.34087,-1.190625 -0.0179,0.885219 -0.0179,0.885219 0.45393,0.768427 c 0.50175,0.84941 0.77258,1.028335 0.46228,0.305406 z m -8.81193,135.135927 v -0.66146 l 0.13346,0.33073 c 0.0734,0.1819 0.0734,0.47955 0,0.66145 l -0.13346,0.33073 z m 26.60835,-122.304591 -0.46968,-1.917274 -1.1073,-2.248959 c -0.60901,-1.236927 -1.14626,-2.321885 -1.19389,-2.41102 l -0.0866,-0.16206 1.53128,-0.291867 c 2.47099,-0.47098 7.32441,-1.056154 11.53344,-1.390576 l 3.916753,-0.311203 7.19576,0.146806 7.19575,0.146805 2.77812,0.410294 c 1.52797,0.225663 4.17819,0.664152 5.88938,0.974421 l 3.11125,0.564129 -0.79344,0.903673 c -0.91559,1.042803 -3.68754,5.11909 -4.33337,6.372431 l -0.4384,0.850792 -0.32865,-0.118922 c -0.18075,-0.06541 -2.23364,-0.300218 -4.56197,-0.521798 l -4.23334,-0.402876 -5.55625,-0.166397 -5.55625,-0.166396 -3.70417,0.308628 c -2.037293,0.169744 -5.112463,0.54306 -6.833713,0.829591 -1.72124,0.286528 -3.20952,0.520533 -3.30729,0.520007 -0.0978,-5.3e-4 -0.38911,-0.863727 -0.64742,-1.918229 z"
       id="path1698" />
  </g>
</svg>
